<svg viewBox="0 0 40 40" xmlns="http://www.w3.org/2000/svg" xml:space="preserve" fill-rule="evenodd" clip-rule="evenodd" stroke-linecap="round" stroke-linejoin="round" stroke-miterlimit="1.5"><path fill="none" d="M0 0h40v40H0z"/><path d="M25.373 8.27a12.995 12.995 0 0 1 6.126-3.841L33 4l.296 2.965a14.918 14.918 0 0 1-1.663 8.472A11.992 11.992 0 0 1 33 20.998v7.392a1.561 1.561 0 0 0 3 .61v.631A3.369 3.369 0 0 1 32.631 33h-.676a3.368 3.368 0 0 1-1.97-.636A5.116 5.116 0 0 0 32 35h-.001a8.108 8.108 0 0 1-3.705-.453c.081.19.168.378.261.563L29 36a9 9 0 0 1-4.781-1.375l-1.096.876a4.998 4.998 0 0 1-6.246 0l-1.096-.876A9 9 0 0 1 11 36l.445-.89c.093-.185.18-.373.261-.563A8.108 8.108 0 0 1 8.001 35H8a5.116 5.116 0 0 0 2.015-2.636 3.368 3.368 0 0 1-1.97.636h-.676A3.369 3.369 0 0 1 4 29.631V29l.002.005A1.562 1.562 0 0 0 7 28.39v-7.392c0-1.955.477-3.86 1.367-5.561a14.918 14.918 0 0 1-1.663-8.472L7 4l1.501.429a12.995 12.995 0 0 1 6.126 3.841A12.003 12.003 0 0 1 20 7s0 0 0 0c1.883 0 3.721.443 5.373 1.27Z" fill="none" stroke="#000" stroke-width="4"/><path d="M20 27.056A9 9 0 0 1 11 36l.445-.89c.093-.185.18-.373.261-.563A8.108 8.108 0 0 1 8.001 35H8a5.117 5.117 0 0 0 2.126-5.498l-.086-.341a16.022 16.022 0 0 1 .138-8.285L11 18h5a.997.997 0 0 1 1 1h6v-.001c0-.552.447-.999.999-.999H29l.822 2.876c.772 2.702.819 5.559.138 8.285l-.086.341A5.117 5.117 0 0 0 32 35h-.001a8.108 8.108 0 0 1-3.705-.453c.081.19.168.378.261.563L29 36a9 9 0 0 1-9-9v.056Z" fill="#573421"/><path d="M8.815 14.653A11.996 11.996 0 0 1 20 7a11.996 11.996 0 0 1 11.185 7.653A11.994 11.994 0 0 1 33 20.998v7.392a1.561 1.561 0 0 0 3 .61v.631A3.369 3.369 0 0 1 32.631 33h-.676a3.369 3.369 0 0 1-2.925-1.698L26.571 27H13.429l-2.459 4.302A3.369 3.369 0 0 1 8.045 33h-.676A3.369 3.369 0 0 1 4 29.631V29l.002.005A1.562 1.562 0 0 0 7 28.39v-7.392c0-2.261.638-4.457 1.815-6.345Z" fill="#875033"/><path d="m24 19-1-7 .443-.885a12.998 12.998 0 0 1 8.056-6.686L33 4l.296 2.965a14.916 14.916 0 0 1-4.295 12.034L29 19h-5Z" fill="#fbfbfb"/><path d="m24 19-1-7 .443-.885a12.998 12.998 0 0 1 8.056-6.686L33 4l.296 2.965a14.916 14.916 0 0 1-4.295 12.034L29 19h-5Zm4.577-1h-3.71l-.833-5.832.303-.606a12.004 12.004 0 0 1 7.436-6.172l.351-.1.177 1.774A13.918 13.918 0 0 1 28.577 18Zm-4.712-5.499-.019.031.019-.031Zm.028-.053-.022.043.022-.043ZM16 19l1-7-.443-.885a12.998 12.998 0 0 0-8.056-6.686L7 4l-.296 2.965a14.916 14.916 0 0 0 4.295 12.034L11 19h5Z" fill="#fbfbfb"/><path d="M11.949 19H11l-.001-.001A14.916 14.916 0 0 1 6.704 6.965L7 4l1.501.429a12.998 12.998 0 0 1 8.056 6.686L17 12l-1 7h-4c0-.118-.021-.232-.058-.337a.644.644 0 0 1 .007.337Zm-.242-.707.006.006-.006-.006Zm4.259-6.125L15.133 18h-3.71A13.918 13.918 0 0 1 7.699 7.064l.177-1.774.351.1a12.004 12.004 0 0 1 7.436 6.172l.303.606Z" fill="#fbfbfb"/><path d="m32.5 5-1.026.456a9.69 9.69 0 0 0-4.972 5.039L25 14v5h3a14.565 14.565 0 0 0 4.679-12.387L32.5 5ZM7.5 5l1.026.456a9.69 9.69 0 0 1 4.972 5.039L15 14v5h-3A14.565 14.565 0 0 1 7.321 6.613L7.5 5Z" fill="#ffb4b7"/><path d="m29.5 9 2-1v.197A3.369 3.369 0 0 1 30 11s0 0 0 0h1c0 .625-.312 1.208-.832 1.555L29.5 13M10.5 9l-2-1v.197c0 1.127.563 2.178 1.5 2.803 0 0 0 0 0 0H9h0c0 .625.312 1.208.832 1.555L10.5 13" fill="none" stroke="#ef8e91"/><g><path d="M10 23.536V20c0-5.523 4.477-10 10-10s10 4.477 10 10v3.536c-.589-.341-1.886 7.463-1.829 7.46a9.759 9.759 0 0 1-1.837 1.937l-3.211 2.568a4.998 4.998 0 0 1-6.246 0l-3.211-2.568a9.759 9.759 0 0 1-1.837-1.937c.057.003-1.24-7.801-1.829-7.46Z" fill="#fbd7c1"/><path d="M10 23.536A4.001 4.001 0 0 1 16 27a4.001 4.001 0 0 1-4.171 3.996A9.765 9.765 0 0 1 10 25.305v-1.769Zm18.171 7.46A4.001 4.001 0 0 1 24 27a4.001 4.001 0 0 1 6-3.464v1.769a9.765 9.765 0 0 1-1.829 5.691Z" fill="#f9bfb1"/></g><g><path d="m15 30 3 2h3l4-2v.849c0 .762-.123 1.52-.364 2.243L24 35h-8l-.636-1.908A7.096 7.096 0 0 1 15 30.849V30Z" fill="none"/><clipPath id="a"><path d="m15 30 3 2h3l4-2v.849c0 .762-.123 1.52-.364 2.243L24 35h-8l-.636-1.908A7.096 7.096 0 0 1 15 30.849V30Z"/></clipPath><g clip-path="url(#a)" fill="none" stroke="#e0af91" stroke-width="2"><path d="m24.5 30.5-1.75 3-.5-1.5 2.25-1.5ZM15.5 30.5l1.75 3 .5-1.5-2.25-1.5Z"/></g><path d="m16 31 .419-.419A3.103 3.103 0 0 1 20 30a3.103 3.103 0 0 1 3.581.581L24 31l-2 1h-3l-3-1Z" fill="#e74572"/><path d="m16 31 .891 1.336A3.734 3.734 0 0 0 19.999 34h.002a3.734 3.734 0 0 0 3.108-1.664L24 31l-2 1h-3l-3-1Z" fill="#e74572"/><path d="m15 30 3 2h3l4-2h3v5H12v-5h3Z" fill="none"/><clipPath id="b"><path d="m15 30 3 2h3l4-2h3v5H12v-5h3Z"/></clipPath><g clip-path="url(#b)" fill="#fff"><path d="m24.5 30.5-1.75 3-.5-1.5 2.25-1.5ZM15.5 30.5l1.75 3 .5-1.5-2.25-1.5Z"/></g><path d="m15.5 30.5.019.014A7.426 7.426 0 0 0 19.977 32h.046a7.426 7.426 0 0 0 4.458-1.486l.019-.014" fill="none" stroke="#6f273b" stroke-width="1.5"/><path d="M24.984 22.127 22 22.5v-.752A2.748 2.748 0 0 1 24.748 19h.449c1.176 0 2.325.348 3.303 1l-.959.767c.298.524.459 1.12.459 1.733v.5c0 .796-.316 1.559-.879 2.121A2.996 2.996 0 0 1 25 26h-.5l.484-3.873Zm-12.525-1.36L11.5 20c.978-.652 2.127-1 3.303-1h.449A2.748 2.748 0 0 1 18 21.748v.752l-2.984-.373L15.5 26H15a2.996 2.996 0 0 1-2.121-.879A2.996 2.996 0 0 1 12 23v-.5c0-.613.161-1.209.459-1.733Z" fill="#7e6c61"/><path d="M27 22.5a2.5 2.5 0 1 0-5 0v1a2.5 2.5 0 1 0 5 0v-1ZM13 22.5a2.5 2.5 0 1 1 5 0v1a2.5 2.5 0 1 1-5 0v-1Z" fill="#fff"/><path d="M15 22a1 1 0 0 1 2 0v2a1 1 0 0 1-2 0v-2ZM25 22a1 1 0 0 0-2 0v2a1 1 0 0 0 2 0v-2Z" fill="#cd761d"/><path d="M21.5 16.75 22 18l.446-.149A7.352 7.352 0 0 1 27.5 18l-.68-.397a7.434 7.434 0 0 0-4.969-.911 64.02 64.02 0 0 0-.351.058ZM18.5 16.75 18 18l-.446-.149A7.352 7.352 0 0 0 12.5 18l.68-.397a7.434 7.434 0 0 1 4.969-.911l.351.058Z" fill="#604333"/><path d="m18.5 27 1.506 1 1.494-1" fill="none" stroke="#db9f7b" stroke-width="1.5"/></g><g><path d="m14 14 1-2-.445-.074a5.499 5.499 0 0 0-6.351 4.649l-.38 2.654a8.78 8.78 0 0 0 4.175 8.77L12 28l-.629-1.886A7.237 7.237 0 0 1 11 23.826v-5.665A4.386 4.386 0 0 1 13.999 14H14ZM32 27.573v-5.104 5.104ZM15.623 9.812c1.129-.042 1.458-.136 2.764.117.355.068 4.428.538 7.865 3.03C29.428 15.262 32 19.472 32 22.453v-2.224C32 14.027 26.973 9 20.771 9h-2.672c-.9 0-1.766.29-2.476.812Z" fill="#875033"/><path d="M14 14v-.001c1.263-1.799 2.187-2.953 4.456-2.514.684.132 1.972.201 2.726.347 5.389 1.043 8.579 5.28 8.579 10.769 0 2.185-1.011 8.323-1.604 8.385.103.009.208.014.313.014h.103A3.427 3.427 0 0 0 32 27.573v-5.12A12.959 12.959 0 0 0 21.504 9.731l-2.172-.42a5.827 5.827 0 0 0-3.709.501A4.178 4.178 0 0 0 14 14Z" fill="#598b7e"/><path d="M17 13.118v.883a6.097 6.097 0 0 0 4.902 5.979L22 20a6.847 6.847 0 0 1-1.299-1.814A5.983 5.983 0 0 0 25 20a9.489 9.489 0 0 1-.728-1.982A5.489 5.489 0 0 0 28.5 20a9.46 9.46 0 0 1-.914-2.966A8.833 8.833 0 0 1 29 21.827v3.051A3.22 3.22 0 0 1 25.002 28H25l.219.657a3.428 3.428 0 0 0 2.938 2.329 2.616 2.616 0 0 0 2.343-2.602v-5.931a11.458 11.458 0 0 0-9.281-11.249l-2.172-.421A4.35 4.35 0 0 0 14 13.999V14l1.635-.545A8.834 8.834 0 0 1 17 13.118Z" fill="#3ee6f1"/></g></svg>